<?xml version="1.0" encoding="UTF-8" standalone="no"?>
<svg
   xmlns:dc="http://purl.org/dc/elements/1.1/"
   xmlns:cc="http://creativecommons.org/ns#"
   xmlns:rdf="http://www.w3.org/1999/02/22-rdf-syntax-ns#"
   xmlns:svg="http://www.w3.org/2000/svg"
   xmlns="http://www.w3.org/2000/svg"
   xmlns:xlink="http://www.w3.org/1999/xlink"
   xmlns:sodipodi="http://sodipodi.sourceforge.net/DTD/sodipodi-0.dtd"
   xmlns:inkscape="http://www.inkscape.org/namespaces/inkscape"
   height="1321.7882pt"
   viewBox="-33 -99 1322.7205 1321.7882"
   width="1321.7882pt"
   id="svg2"
   version="1.1"
   inkscape:version="0.91 r13725"
   sodipodi:docname="lung.svg">
  <metadata
     id="metadata14">
    <rdf:RDF>
      <cc:Work
         rdf:about="">
        <dc:format>image/svg+xml</dc:format>
        <dc:type
           rdf:resource="http://purl.org/dc/dcmitype/StillImage" />
        <dc:title />
      </cc:Work>
    </rdf:RDF>
  </metadata>
  <defs
     id="defs12">
    <linearGradient
       inkscape:collect="always"
       id="linearGradient4138">
      <stop
         style="stop-color:#0b80c3;stop-opacity:1;"
         offset="0"
         id="stop4140" />
      <stop
         style="stop-color:#0b80c3;stop-opacity:0;"
         offset="1"
         id="stop4142" />
    </linearGradient>
    <radialGradient
       inkscape:collect="always"
       xlink:href="#linearGradient4138"
       id="radialGradient4144"
       cx="502.25549"
       cy="486.58905"
       fx="502.25549"
       fy="486.58905"
       r="528.60229"
       gradientUnits="userSpaceOnUse"
       gradientTransform="matrix(1.2577624,0,0,1.2577624,-3.357774,-50.028009)" />
  </defs>
  <sodipodi:namedview
     pagecolor="#ffffff"
     bordercolor="#666666"
     borderopacity="1"
     objecttolerance="10"
     gridtolerance="10"
     guidetolerance="10"
     inkscape:pageopacity="0"
     inkscape:pageshadow="2"
     inkscape:window-width="1920"
     inkscape:window-height="1056"
     id="namedview10"
     showgrid="false"
     inkscape:zoom="0.50235846"
     inkscape:cx="515.57384"
     inkscape:cy="887.9272"
     inkscape:window-x="0"
     inkscape:window-y="24"
     inkscape:window-maximized="1"
     inkscape:current-layer="svg2"
     fit-margin-top="0"
     fit-margin-left="0"
     fit-margin-right="0"
     fit-margin-bottom="0" />
  <circle
     style="fill:url(#radialGradient4144);fill-opacity:1;stroke:none;stroke-width:6.99158573;stroke-miterlimit:4;stroke-dasharray:none;stroke-opacity:0.90588235"
     id="path4136"
     cx="628.36029"
     cy="561.98541"
     r="661.36029" />
  <g
     id="g4160"
     transform="translate(0,-22.310563)">
    <path
       style="fill:#ffffff;fill-opacity:1;stroke:none;stroke-opacity:1"
       sodipodi:nodetypes="sscccccccccscccccsccccccccssssscccscccssss"
       inkscape:connector-curvature="0"
       id="path4"
       d="m 826.25561,815.82252 -40.76168,0 c -25.94202,0 -49.91356,-10.51325 -67.4864,-29.60582 -16.81145,-18.26418 -25.67705,-41.31292 -23.90758,-69.91675 l 7.10222,-111.63778 c 4.12673,2.48213 8.38441,4.37646 12.57813,6.53881 9.28285,4.77542 19.02253,9.77318 34.8929,14.47246 1.07204,22.55537 11.09799,55.85239 44.87013,63.64596 14.95975,3.44757 19.64991,-18.89157 5.1348,-22.24472 -19.23571,-4.43432 -24.91871,-23.1127 -26.56636,-36.14766 15.94651,2.60699 28.71957,2.62527 28.87489,2.62832 6.31039,0 11.41778,-5.1074 11.41778,-11.40865 0,-6.30125 -5.10739,-11.40864 -11.41778,-11.40864 l -0.31674,-0.009 c -51.67084,-0.69134 -100.62505,-27.29119 -137.71684,-66.46918 -18.36468,-19.39408 -49.49327,-19.39408 -67.861,0 -67.08135,70.86086 -135.76769,65.9758 -138.03968,66.47832 -6.30124,0 -11.41167,5.10739 -11.41167,11.41168 0,6.2982 5.11043,11.41473 11.41167,11.41473 0.36547,-0.0274 11.91117,0.13706 28.04041,-2.42121 -1.6781,13.01364 -7.41287,31.52452 -26.5359,35.93143 -14.51511,3.35315 -9.83714,25.69532 5.13175,22.24471 33.6625,-7.76311 43.71282,-40.85913 44.84881,-63.4084 9.42599,-2.74709 18.68142,-6.30429 27.80286,-10.53152 0.15227,-0.0609 19.41539,-10.05032 22.02543,-11.65229 8.38136,131.26332 6.99868,110.39824 7.20577,112.789 4.40692,53.2119 -37.40242,99.29719 -91.41834,99.29719 l -36.27254,0 c -6.30429,0 -148.47381,5.11958 -148.47381,11.41474 0,6.31038 142.16952,11.41777 148.47381,11.41777 l 36.27254,0 c 66.85292,0 119.6293,-57.19852 114.16862,-123.90221 l -8.07985,-126.59146 c 10.74471,-8.38441 21.29755,-17.49974 31.42097,-28.20181 4.54092,-4.7937 10.70512,-7.43115 17.36269,-7.43115 16.53431,0 15.10594,9.95895 50.26989,36.97606 l -7.97325,125.24834 c -2.60395,31.78948 8.28999,63.46932 29.89514,86.93226 21.62343,23.49643 52.34086,36.96996 84.27653,36.96996 l 40.76168,0 c 6.30429,0 166.039,-5.10739 166.039,-11.41778 0,-6.29515 -159.73471,-11.40559 -166.039,-11.40559 z" />
    <path
       style="fill:#ffffff;fill-opacity:1;stroke:none;stroke-opacity:1"
       sodipodi:nodetypes="ccsccssssscccccsccccccccccsccccsssssccc"
       inkscape:connector-curvature="0"
       id="path6"
       d="M 1017.8483,789.51808 C 994.01378,611.51466 971.50105,443.38799 861.00841,370.16376 c -14.63693,-9.70312 -31.72553,-14.83184 -49.41714,-14.83184 -45.50665,0 -115.86804,34.5518 -119.82727,82.28475 l -2.51867,30.41592 c -8.33567,-12.08475 -14.56992,-20.9534 -14.56992,-35.60859 l 0,-256.65785 c 0,-6.30734 -5.11043,-11.41474 -11.41473,-11.41474 -6.30125,0 -11.41169,5.1074 -11.41169,11.41474 l 0,256.65785 c 0,12.55376 3.46584,24.80602 10.01987,35.44109 7.98849,12.97101 19.95446,28.89925 27.73585,37.80749 17.54238,20.07324 34.04928,32.61787 50.81809,42.02863 0.79489,0.44769 1.5441,1.14512 2.35116,1.57455 0.45989,0.32282 2.96942,1.53191 3.87091,1.76032 16.16883,8.07985 36.9395,14.0461 54.80776,14.0461 1.68114,0 2.89022,-1.11773 4.33991,-1.7847 1.21822,-0.55125 2.70445,-0.55734 3.64248,-1.49536 7.19055,-7.05655 2.32376,-19.40932 -7.83621,-19.54332 -5.46677,-0.0762 -10.83303,-1.23953 -16.22061,-2.22325 10.45233,-7.30932 21.04477,-19.10475 26.26789,-38.42574 1.6446,-6.08805 -1.95524,-12.34971 -8.03721,-14.0004 -6.08806,-1.63851 -12.34972,1.95829 -13.99736,8.04026 -7.54688,27.91553 -30.0931,32.42599 -36.24512,33.1752 -16.52213,-8.89606 -31.00982,-21.06609 -43.3839,-34.68275 l 4.53787,-54.6433 c 2.74709,-33.26353 61.57803,-61.34353 97.0709,-61.34353 13.19029,0 25.92375,3.81608 36.8055,11.03404 101.84633,67.50163 123.69512,230.6397 146.82305,403.35603 l 0.38069,2.80799 c 0.70047,5.2414 -0.83144,10.31529 -4.30946,14.28365 -3.48715,3.99272 -8.3174,6.18552 -13.61057,6.18552 l -101.20372,0 c -6.31038,0 -95.75994,5.11044 -95.75994,11.41168 0,6.3043 89.44956,11.41473 95.75994,11.41473 l 101.20372,0 c 11.80152,0 23.01832,-5.0952 30.78752,-13.97604 7.7661,-8.87779 11.3172,-20.66407 9.761,-32.34986 z" />
    <path
       style="fill:#ffffff;fill-opacity:1;stroke:none;stroke-opacity:1"
       sodipodi:nodetypes="cscccccccccccccccsssssccsccsssssccc"
       inkscape:connector-curvature="0"
       id="path8"
       d="m 411.25643,389.18933 c 10.88481,-7.21796 23.60608,-11.03404 36.80855,-11.03404 35.48678,0 94.31162,28.08 97.0709,61.34353 l 4.3856,52.92865 c -3.95923,4.42519 -8.02808,8.00067 -12.06039,11.83502 -9.81277,9.31939 -5.549,7.09005 -23.47512,18.72711 -2.99987,1.9461 -5.94492,4.38863 -8.98134,6.03323 -4.57746,-0.41419 -29.45963,-4.06885 -37.3872,-33.37316 -1.6446,-6.08197 -7.9093,-9.67573 -13.99431,-8.04026 -6.08502,1.65069 -9.68791,7.91235 -8.04026,14.0004 5.2353,19.35144 15.84905,31.15601 26.31966,38.47142 -5.14394,0.88626 -10.25133,2.10448 -15.45618,2.17757 -10.11123,0.13401 -15.05721,12.4685 -7.83011,19.54941 0.71265,0.70048 1.87606,0.63347 2.75318,1.12685 1.80296,1.02026 3.21915,2.18062 5.38758,2.14712 16.68658,-0.22537 43.80114,-7.73266 57.94773,-15.22777 34.55788,-18.30986 63.05207,-52.01803 81.49594,-81.97713 6.5388,-10.62594 9.99246,-22.86906 9.99246,-35.40456 l 0,-256.70657 c 0,-6.30734 -5.11044,-11.41474 -11.40865,-11.41474 -6.30733,0 -11.41472,5.1074 -11.41472,11.41474 l 0,256.70657 c 0,18.40123 -10.29702,28.10132 -13.23293,32.44123 l -2.25676,-27.29728 c -3.95617,-47.73295 -74.31453,-82.28475 -119.82117,-82.28475 -17.6977,0 -34.7863,5.12567 -49.42323,14.83184 -117.28727,77.73773 -136.82754,269.97301 -157.21142,422.16841 -3.28006,24.50451 15.82469,46.31676 40.53935,46.31676 l 90.47728,0 c 6.30429,0 108.05376,-5.11043 108.05376,-11.41473 0,-6.30124 -101.74947,-11.41168 -108.05376,-11.41168 l -90.47728,0 c -5.28099,0 -10.12037,-2.1928 -13.60144,-6.17334 -6.62712,-7.57125 -3.88917,-15.82469 -3.9379,-17.10686 23.12793,-172.71634 44.97672,-335.85441 146.83218,-403.35299 z" />
  </g>
  <flowRoot
     xml:space="preserve"
     id="flowRoot4148"
     style="font-style:normal;font-weight:normal;font-size:40px;line-height:1000%;font-family:sans-serif;letter-spacing:0px;word-spacing:0px;fill:#000000;fill-opacity:1;stroke:none;stroke-width:1px;stroke-linecap:butt;stroke-linejoin:miter;stroke-opacity:1"
     transform="matrix(0.80056429,0,0,0.80056429,-33,-99.466149)"><flowRegion
       id="flowRegion4150"><rect
         id="rect4152"
         width="893.78412"
         height="179.15494"
         x="388.16904"
         y="1272.0287" /></flowRegion><flowPara
       id="flowPara4154">Deep BrB</flowPara></flowRoot>  <text
     xml:space="preserve"
     style="font-style:normal;font-weight:normal;font-size:54.06912231px;line-height:1000%;font-family:sans-serif;letter-spacing:0px;word-spacing:0px;fill:#333333;fill-opacity:1;stroke:none;stroke-width:1px;stroke-linecap:butt;stroke-linejoin:miter;stroke-opacity:1"
     x="268.10498"
     y="972.49872"
     id="text4156"
     sodipodi:linespacing="1000%"><tspan
       sodipodi:role="line"
       id="tspan4158"
       x="268.10498"
       y="972.49872"
       style="font-size:121.65553284px;fill:#333333">DeepBreath</tspan></text>
</svg>
