<?xml version="1.0" encoding="UTF-8" standalone="no"?>
<svg
   xmlns:dc="http://purl.org/dc/elements/1.1/"
   xmlns:cc="http://creativecommons.org/ns#"
   xmlns:rdf="http://www.w3.org/1999/02/22-rdf-syntax-ns#"
   xmlns:svg="http://www.w3.org/2000/svg"
   xmlns="http://www.w3.org/2000/svg"
   xmlns:xlink="http://www.w3.org/1999/xlink"
   xmlns:sodipodi="http://sodipodi.sourceforge.net/DTD/sodipodi-0.dtd"
   xmlns:inkscape="http://www.inkscape.org/namespaces/inkscape"
   height="1321.7882pt"
   viewBox="-33 -99 1322.7205 1321.7882"
   width="1321.7882pt"
   id="svg2"
   version="1.1"
   inkscape:version="0.91 r13725"
   sodipodi:docname="lung.svg">
  <metadata
     id="metadata14">
    <rdf:RDF>
      <cc:Work
         rdf:about="">
        <dc:format>image/svg+xml</dc:format>
        <dc:type
           rdf:resource="http://purl.org/dc/dcmitype/StillImage" />
        <dc:title />
      </cc:Work>
    </rdf:RDF>
  </metadata>
  <defs
     id="defs12">
    <linearGradient
       inkscape:collect="always"
       id="linearGradient4138">
      <stop
         style="stop-color:#0b80c3;stop-opacity:1;"
         offset="0"
         id="stop4140" />
      <stop
         style="stop-color:#0b80c3;stop-opacity:0;"
         offset="1"
         id="stop4142" />
    </linearGradient>
    <radialGradient
       inkscape:collect="always"
       xlink:href="#linearGradient4138"
       id="radialGradient4144"
       cx="502.25549"
       cy="486.58905"
       fx="502.25549"
       fy="486.58905"
       r="528.60229"
       gradientUnits="userSpaceOnUse"
       gradientTransform="matrix(1.2577624,0,0,1.2577624,-3.357774,-50.028009)" />
  </defs>
  <sodipodi:namedview
     pagecolor="#ffffff"
     bordercolor="#666666"
     borderopacity="1"
     objecttolerance="10"
     gridtolerance="10"
     guidetolerance="10"
     inkscape:pageopacity="0"
     inkscape:pageshadow="2"
     inkscape:window-width="1920"
     inkscape:window-height="1056"
     id="namedview10"
     showgrid="false"
     inkscape:zoom="0.50235846"
     inkscape:cx="834.07151"
     inkscape:cy="808.30278"
     inkscape:window-x="0"
     inkscape:window-y="24"
     inkscape:window-maximized="1"
     inkscape:current-layer="svg2"
     fit-margin-top="0"
     fit-margin-left="0"
     fit-margin-right="0"
     fit-margin-bottom="0" />
  <circle
     style="fill:url(#radialGradient4144);fill-opacity:1;stroke:none;stroke-width:6.99158573;stroke-miterlimit:4;stroke-dasharray:none;stroke-opacity:0.90588235"
     id="path4136"
     cx="628.36029"
     cy="561.98541"
     r="661.36029" />
  <g
     id="g4160"
     transform="translate(0,-22.310563)">
    <path
       style="fill:#ffffff;fill-opacity:1;stroke:none;stroke-opacity:1"
       sodipodi:nodetypes="sscccccccccscccccsccccccccssssscccscccssss"
       inkscape:connector-curvature="0"
       id="path4"
       d="m 826.25561,815.82252 -40.76168,0 c -25.94202,0 -49.91356,-10.51325 -67.4864,-29.60582 -16.81145,-18.26418 -25.67705,-41.31292 -23.90758,-69.91675 l 7.10222,-111.63778 c 4.12673,2.48213 8.38441,4.37646 12.57813,6.53881 9.28285,4.77542 19.02253,9.77318 34.8929,14.47246 1.07204,22.55537 11.09799,55.85239 44.87013,63.64596 14.95975,3.44757 19.64991,-18.89157 5.1348,-22.24472 -19.23571,-4.43432 -24.91871,-23.1127 -26.56636,-36.14766 15.94651,2.60699 28.71957,2.62527 28.87489,2.62832 6.31039,0 11.41778,-5.1074 11.41778,-11.40865 0,-6.30125 -5.10739,-11.40864 -11.41778,-11.40864 l -0.31674,-0.009 c -51.67084,-0.69134 -100.62505,-27.29119 -137.71684,-66.46918 -18.36468,-19.39408 -49.49327,-19.39408 -67.861,0 -67.08135,70.86086 -135.76769,65.9758 -138.03968,66.47832 -6.30124,0 -11.41167,5.10739 -11.41167,11.41168 0,6.2982 5.11043,11.41473 11.41167,11.41473 0.36547,-0.0274 11.91117,0.13706 28.04041,-2.42121 -1.6781,13.01364 -7.41287,31.52452 -26.5359,35.93143 -14.51511,3.35315 -9.83714,25.69532 5.13175,22.24471 33.6625,-7.76311 43.71282,-40.85913 44.84881,-63.4084 9.42599,-2.74709 18.68142,-6.30429 27.80286,-10.53152 0.15227,-0.0609 19.41539,-10.05032 22.02543,-11.65229 8.38136,131.26332 6.99868,110.39824 7.20577,112.789 4.40692,53.2119 -37.40242,99.29719 -91.41834,99.29719 l -36.27254,0 c -6.30429,0 -148.47381,5.11958 -148.47381,11.41474 0,6.31038 142.16952,11.41777 148.47381,11.41777 l 36.27254,0 c 66.85292,0 119.6293,-57.19852 114.16862,-123.90221 l -8.07985,-126.59146 c 10.74471,-8.38441 21.29755,-17.49974 31.42097,-28.20181 4.54092,-4.7937 10.70512,-7.43115 17.36269,-7.43115 16.53431,0 15.10594,9.95895 50.26989,36.97606 l -7.97325,125.24834 c -2.60395,31.78948 8.28999,63.46932 29.89514,86.93226 21.62343,23.49643 52.34086,36.96996 84.27653,36.96996 l 40.76168,0 c 6.30429,0 166.039,-5.10739 166.039,-11.41778 0,-6.29515 -159.73471,-11.40559 -166.039,-11.40559 z" />
    <path
       style="fill:#ffffff;fill-opacity:1;stroke:none;stroke-opacity:1"
       sodipodi:nodetypes="ccsccssssscccccsccccccccccsccccsssssccc"
       inkscape:connector-curvature="0"
       id="path6"
       d="M 1017.8483,789.51808 C 994.01378,611.51466 971.50105,443.38799 861.00841,370.16376 c -14.63693,-9.70312 -31.72553,-14.83184 -49.41714,-14.83184 -45.50665,0 -115.86804,34.5518 -119.82727,82.28475 l -2.51867,30.41592 c -8.33567,-12.08475 -14.56992,-20.9534 -14.56992,-35.60859 l 0,-256.65785 c 0,-6.30734 -5.11043,-11.41474 -11.41473,-11.41474 -6.30125,0 -11.41169,5.1074 -11.41169,11.41474 l 0,256.65785 c 0,12.55376 3.46584,24.80602 10.01987,35.44109 7.98849,12.97101 19.95446,28.89925 27.73585,37.80749 17.54238,20.07324 34.04928,32.61787 50.81809,42.02863 0.79489,0.44769 1.5441,1.14512 2.35116,1.57455 0.45989,0.32282 2.96942,1.53191 3.87091,1.76032 16.16883,8.07985 36.9395,14.0461 54.80776,14.0461 1.68114,0 2.89022,-1.11773 4.33991,-1.7847 1.21822,-0.55125 2.70445,-0.55734 3.64248,-1.49536 7.19055,-7.05655 2.32376,-19.40932 -7.83621,-19.54332 -5.46677,-0.0762 -10.83303,-1.23953 -16.22061,-2.22325 10.45233,-7.30932 21.04477,-19.10475 26.26789,-38.42574 1.6446,-6.08805 -1.95524,-12.34971 -8.03721,-14.0004 -6.08806,-1.63851 -12.34972,1.95829 -13.99736,8.04026 -7.54688,27.91553 -30.0931,32.42599 -36.24512,33.1752 -16.52213,-8.89606 -31.00982,-21.06609 -43.3839,-34.68275 l 4.53787,-54.6433 c 2.74709,-33.26353 61.57803,-61.34353 97.0709,-61.34353 13.19029,0 25.92375,3.81608 36.8055,11.03404 101.84633,67.50163 123.69512,230.6397 146.82305,403.35603 l 0.38069,2.80799 c 0.70047,5.2414 -0.83144,10.31529 -4.30946,14.28365 -3.48715,3.99272 -8.3174,6.18552 -13.61057,6.18552 l -101.20372,0 c -6.31038,0 -95.75994,5.11044 -95.75994,11.41168 0,6.3043 89.44956,11.41473 95.75994,11.41473 l 101.20372,0 c 11.80152,0 23.01832,-5.0952 30.78752,-13.97604 7.7661,-8.87779 11.3172,-20.66407 9.761,-32.34986 z" />
    <path
       style="fill:#ffffff;fill-opacity:1;stroke:none;stroke-opacity:1"
       sodipodi:nodetypes="cscccccccccccccccsssssccsccsssssccc"
       inkscape:connector-curvature="0"
       id="path8"
       d="m 411.25643,389.18933 c 10.88481,-7.21796 23.60608,-11.03404 36.80855,-11.03404 35.48678,0 94.31162,28.08 97.0709,61.34353 l 4.3856,52.92865 c -3.95923,4.42519 -8.02808,8.00067 -12.06039,11.83502 -9.81277,9.31939 -5.549,7.09005 -23.47512,18.72711 -2.99987,1.9461 -5.94492,4.38863 -8.98134,6.03323 -4.57746,-0.41419 -29.45963,-4.06885 -37.3872,-33.37316 -1.6446,-6.08197 -7.9093,-9.67573 -13.99431,-8.04026 -6.08502,1.65069 -9.68791,7.91235 -8.04026,14.0004 5.2353,19.35144 15.84905,31.15601 26.31966,38.47142 -5.14394,0.88626 -10.25133,2.10448 -15.45618,2.17757 -10.11123,0.13401 -15.05721,12.4685 -7.83011,19.54941 0.71265,0.70048 1.87606,0.63347 2.75318,1.12685 1.80296,1.02026 3.21915,2.18062 5.38758,2.14712 16.68658,-0.22537 43.80114,-7.73266 57.94773,-15.22777 34.55788,-18.30986 63.05207,-52.01803 81.49594,-81.97713 6.5388,-10.62594 9.99246,-22.86906 9.99246,-35.40456 l 0,-256.70657 c 0,-6.30734 -5.11044,-11.41474 -11.40865,-11.41474 -6.30733,0 -11.41472,5.1074 -11.41472,11.41474 l 0,256.70657 c 0,18.40123 -10.29702,28.10132 -13.23293,32.44123 l -2.25676,-27.29728 c -3.95617,-47.73295 -74.31453,-82.28475 -119.82117,-82.28475 -17.6977,0 -34.7863,5.12567 -49.42323,14.83184 -117.28727,77.73773 -136.82754,269.97301 -157.21142,422.16841 -3.28006,24.50451 15.82469,46.31676 40.53935,46.31676 l 90.47728,0 c 6.30429,0 108.05376,-5.11043 108.05376,-11.41473 0,-6.30124 -101.74947,-11.41168 -108.05376,-11.41168 l -90.47728,0 c -5.28099,0 -10.12037,-2.1928 -13.60144,-6.17334 -6.62712,-7.57125 -3.88917,-15.82469 -3.9379,-17.10686 23.12793,-172.71634 44.97672,-335.85441 146.83218,-403.35299 z" />
  </g>
  <flowRoot
     xml:space="preserve"
     id="flowRoot4148"
     style="font-style:normal;font-weight:normal;font-size:40px;line-height:1000%;font-family:sans-serif;letter-spacing:0px;word-spacing:0px;fill:#000000;fill-opacity:1;stroke:none;stroke-width:1px;stroke-linecap:butt;stroke-linejoin:miter;stroke-opacity:1"
     transform="matrix(0.80056429,0,0,0.80056429,-33,-99.466149)"><flowRegion
       id="flowRegion4150"><rect
         id="rect4152"
         width="893.78412"
         height="179.15494"
         x="388.16904"
         y="1272.0287" /></flowRegion><flowPara
       id="flowPara4154">Deep BrB</flowPara></flowRoot>  <g
     style="font-style:normal;font-weight:normal;font-size:54.06912231px;line-height:1000%;font-family:sans-serif;letter-spacing:0px;word-spacing:0px;fill:#333333;fill-opacity:1;stroke:none;stroke-width:1px;stroke-linecap:butt;stroke-linejoin:miter;stroke-opacity:1"
     id="text4156">
    <path
       d="m 292.04403,893.67211 0,68.96586 14.49412,0 q 18.35525,0 26.84976,-8.3163 8.5539,-8.3163 8.5539,-26.25573 0,-17.82064 -8.5539,-26.07753 -8.49451,-8.3163 -26.84976,-8.3163 l -14.49412,0 z m -11.99922,-9.86075 24.65187,0 q 25.78052,0 37.83915,10.75178 12.05863,10.69238 12.05863,33.5028 0,22.92921 -12.11803,33.681 -12.11803,10.75178 -37.77975,10.75178 l -24.65187,0 0,-88.68736 z"
       style="font-size:121.65553284px;fill:#333333"
       id="path4166" />
    <path
       d="m 430.09455,936.50104 0,5.34619 -50.25419,0 q 0.71283,11.2864 6.77184,17.22661 6.11842,5.88081 16.98901,5.88081 6.29662,0 12.17743,-1.54446 5.94021,-1.54445 11.76162,-4.63336 l 0,10.33597 q -5.88081,2.49489 -12.05863,3.80173 -6.17782,1.30685 -12.53384,1.30685 -15.91977,0 -25.2459,-9.26673 -9.26673,-9.26673 -9.26673,-25.06769 0,-16.33559 8.79151,-25.89933 8.85091,-9.62314 23.82025,-9.62314 13.42488,0 21.20655,8.67271 7.84108,8.61331 7.84108,23.46384 z m -10.92999,-3.20772 q -0.1188,-8.96972 -5.04918,-14.31591 -4.87097,-5.34619 -12.94966,-5.34619 -9.14792,0 -14.67232,5.16799 -5.465,5.16798 -6.29662,14.55351 l 38.96778,-0.0594 z"
       style="font-size:121.65553284px;fill:#333333"
       id="path4168" />
    <path
       d="m 504.94122,936.50104 0,5.34619 -50.25419,0 q 0.71282,11.2864 6.77184,17.22661 6.11842,5.88081 16.989,5.88081 6.29663,0 12.17744,-1.54446 5.94021,-1.54445 11.76162,-4.63336 l 0,10.33597 q -5.88081,2.49489 -12.05863,3.80173 -6.17782,1.30685 -12.53385,1.30685 -15.91977,0 -25.2459,-9.26673 -9.26673,-9.26673 -9.26673,-25.06769 0,-16.33559 8.79151,-25.89933 8.85092,-9.62314 23.82025,-9.62314 13.42488,0 21.20656,8.67271 7.84108,8.61331 7.84108,23.46384 z m -10.92999,-3.20772 q -0.11881,-8.96972 -5.04918,-14.31591 -4.87098,-5.34619 -12.94966,-5.34619 -9.14793,0 -14.67233,5.16799 -5.46499,5.16798 -6.29662,14.55351 l 38.96779,-0.0594 z"
       style="font-size:121.65553284px;fill:#333333"
       id="path4170" />
    <path
       d="m 533.45423,962.51916 0,35.28486 -10.98939,0 0,-91.83567 10.98939,0 0,10.09836 q 3.44532,-5.94021 8.67271,-8.79151 5.28679,-2.91071 12.59325,-2.91071 12.11803,0 19.6621,9.62314 7.60347,9.62315 7.60347,25.30531 0,15.68215 -7.60347,25.3053 -7.54407,9.62314 -19.6621,9.62314 -7.30646,0 -12.59325,-2.8513 -5.22739,-2.91071 -8.67271,-8.85092 z m 37.18573,-23.22622 q 0,-12.05863 -4.98978,-18.88988 -4.93038,-6.89064 -13.60309,-6.89064 -8.67271,0 -13.66248,6.89064 -4.93038,6.83125 -4.93038,18.88988 0,12.05863 4.93038,18.94927 4.98977,6.83124 13.66248,6.83124 8.67271,0 13.60309,-6.83124 4.98978,-6.89064 4.98978,-18.94927 z"
       style="font-size:121.65553284px;fill:#333333"
       id="path4172" />
    <path
       d="m 612.57785,930.14501 0,32.49296 19.24628,0 q 9.68255,0 14.31591,-3.97994 4.69277,-4.03935 4.69277,-12.29624 0,-8.3163 -4.69277,-12.23684 -4.63336,-3.97994 -14.31591,-3.97994 l -19.24628,0 z m 0,-36.4729 0,26.73095 17.76123,0 q 8.79151,0 13.06846,-3.26711 4.33636,-3.32652 4.33636,-10.09836 0,-6.71244 -4.33636,-10.03896 -4.27695,-3.32652 -13.06846,-3.32652 l -17.76123,0 z m -11.99923,-9.86075 30.65149,0 q 13.72189,0 21.14715,5.7026 7.42527,5.70261 7.42527,16.21678 0,8.13809 -3.80174,12.94966 -3.80173,4.81157 -11.16759,5.99962 8.85091,1.90086 13.72188,7.95988 4.93038,5.99961 4.93038,15.02873 0,11.88043 -8.07869,18.35526 -8.07869,6.47483 -22.98862,6.47483 l -31.83953,0 0,-88.68736 z"
       style="font-size:121.65553284px;fill:#333333"
       id="path4174" />
    <path
       d="m 722.05595,916.18551 q -1.84147,-1.06924 -4.03934,-1.54445 -2.13848,-0.53462 -4.75217,-0.53462 -9.26673,0 -14.25651,6.05901 -4.93038,5.99962 -4.93038,17.28602 l 0,35.04725 -10.98939,0 0,-66.53037 10.98939,0 0,10.33597 q 3.44533,-6.05902 8.96972,-8.96972 5.5244,-2.97011 13.42488,-2.97011 1.12864,0 2.49489,0.17821 1.36625,0.1188 3.02951,0.41581 l 0.0594,11.227 z"
       style="font-size:121.65553284px;fill:#333333"
       id="path4176" />
    <path
       d="m 787.9329,936.50104 0,5.34619 -50.25419,0 q 0.71283,11.2864 6.77184,17.22661 6.11842,5.88081 16.98901,5.88081 6.29662,0 12.17743,-1.54446 5.94021,-1.54445 11.76162,-4.63336 l 0,10.33597 q -5.88081,2.49489 -12.05863,3.80173 -6.17782,1.30685 -12.53385,1.30685 -15.91976,0 -25.2459,-9.26673 -9.26673,-9.26673 -9.26673,-25.06769 0,-16.33559 8.79152,-25.89933 8.85091,-9.62314 23.82025,-9.62314 13.42487,0 21.20655,8.67271 7.84108,8.61331 7.84108,23.46384 z m -10.92999,-3.20772 q -0.1188,-8.96972 -5.04918,-14.31591 -4.87097,-5.34619 -12.94966,-5.34619 -9.14793,0 -14.67232,5.16799 -5.465,5.16798 -6.29663,14.55351 l 38.96779,-0.0594 z"
       style="font-size:121.65553284px;fill:#333333"
       id="path4178" />
    <path
       d="m 836.108,939.05533 q -13.24667,0 -18.35525,3.02951 -5.10859,3.0295 -5.10859,10.33596 0,5.82141 3.80174,9.26673 3.86114,3.38592 10.45477,3.38592 9.08853,0 14.55352,-6.41542 5.5244,-6.47484 5.5244,-17.16722 l 0,-2.43548 -10.87059,0 z m 21.80058,-4.51456 0,37.95795 -10.92999,0 0,-10.09836 q -3.74234,6.05901 -9.32613,8.96972 -5.5838,2.8513 -13.66249,2.8513 -10.21717,0 -16.27618,-5.7026 -5.99961,-5.76201 -5.99961,-15.38515 0,-11.227 7.48466,-16.9296 7.54407,-5.70261 22.454,-5.70261 l 15.32575,0 0,-1.06924 q 0,-7.54406 -4.98978,-11.64281 -4.93038,-4.15815 -13.9001,-4.15815 -5.7026,0 -11.10819,1.36625 -5.40559,1.36625 -10.39537,4.09875 l 0,-10.09836 q 5.99961,-2.31669 11.64281,-3.44533 5.6432,-1.18804 10.98939,-1.18804 14.43472,0 21.56297,7.48467 7.12826,7.48466 7.12826,22.69161 z"
       style="font-size:121.65553284px;fill:#333333"
       id="path4180" />
    <path
       d="m 891.29258,887.07848 0,18.88987 22.5134,0 0,8.4945 -22.5134,0 0,36.11649 q 0,8.13809 2.19788,10.45477 2.25728,2.31668 9.08852,2.31668 l 11.227,0 0,9.14793 -11.227,0 q -12.65265,0 -17.46422,-4.69277 -4.81157,-4.75217 -4.81157,-17.22661 l 0,-36.11649 -8.01929,0 0,-8.4945 8.01929,0 0,-18.88987 10.98939,0 z"
       style="font-size:121.65553284px;fill:#333333"
       id="path4182" />
    <path
       d="m 983.54404,932.34289 0,40.15583 -10.92999,0 0,-39.79942 q 0,-9.44494 -3.68293,-14.1377 -3.68293,-4.69277 -11.04879,-4.69277 -8.85092,0 -13.9595,5.6432 -5.10858,5.6432 -5.10858,15.38515 l 0,37.60154 -10.98939,0 0,-92.42969 10.98939,0 0,36.23529 q 3.92054,-5.99962 9.20732,-8.96972 5.3462,-2.97011 12.29624,-2.97011 11.46461,0 17.34542,7.12826 5.88081,7.06885 5.88081,20.85014 z"
       style="font-size:121.65553284px;fill:#333333"
       id="path4184" />
  </g>
</svg>
